<?xml version="1.0" encoding="utf-8"?>
<!-- Generator: Adobe Illustrator 21.0.2, SVG Export Plug-In . SVG Version: 6.00 Build 0)  -->
<svg version="1.1" id="Layer_1" xmlns="http://www.w3.org/2000/svg" xmlns:xlink="http://www.w3.org/1999/xlink" x="0px" y="0px"
	 viewBox="0 0 60 60" style="enable-background:new 0 0 60 60;" xml:space="preserve">
<title>close</title>
<desc>Created with Sketch.</desc>
<g id="Page-1">
	<g id="close">
		<path d="M33.7,30l16.5-16.5c1-1,1-2.7,0-3.7c-1-1-2.7-1-3.7,0L30,26.3L13.5,9.8c-1-1-2.7-1-3.7,0s-1,2.7,0,3.7L26.3,30L9.8,46.5
			c-1,1-1,2.7,0,3.7c1,1,2.7,1,3.7,0L30,33.7l16.5,16.5c1,1,2.7,1,3.7,0c1-1,1-2.7,0-3.7L33.7,30z"/>
	</g>
</g>
</svg>
