<?xml version="1.0" encoding="utf-8"?>
<!-- Generator: Adobe Illustrator 20.0.0, SVG Export Plug-In . SVG Version: 6.00 Build 0)  -->
<svg version="1.1" id="Layer_1" xmlns="http://www.w3.org/2000/svg" xmlns:xlink="http://www.w3.org/1999/xlink" x="0px" y="0px"
	 viewBox="0 0 256 256" style="enable-background:new 0 0 256 256;" xml:space="preserve">
<path d="M128,22.5c58.2,0,105.5,47.3,105.5,105.5S186.2,233.5,128,233.5S22.5,186.2,22.5,128S69.8,22.5,128,22.5 M128,0
	C57.3,0,0,57.3,0,128s57.3,128,128,128s128-57.3,128-128S198.7,0,128,0L128,0z M138,175.8c2.8,2.7,4.2,6.1,4.2,10
	c0,4.4-1.4,7.9-4.2,10.4s-6.1,3.8-9.9,3.8c-3.8,0-7.2-1.2-10-3.7c-2.9-2.5-4.3-6-4.3-10.4c0-3.9,1.4-7.2,4.1-10
	c2.7-2.7,6.1-4.1,10-4.1C131.9,171.7,135.2,173.1,138,175.8z M139.5,62.7c1.8,3.7,2.7,9.1,2.7,16.2c0,4.2-0.2,8.4-0.7,12.6
	l-4.1,46.5c-0.4,5.5-1.4,9.8-2.8,12.7c-1.4,3-3.8,4.4-7.2,4.4c-3.4,0-5.8-1.4-7.1-4.3c-1.3-2.9-2.3-7.2-2.8-13.1l-3-45.2
	c-0.6-8.8-0.8-15.1-0.8-19c0-5.2,1.4-9.3,4.1-12.2c2.7-2.9,6.3-4.4,10.8-4.4C134.1,57.1,137.7,58.9,139.5,62.7z"/>
</svg>
