<?xml version="1.0" encoding="utf-8"?>
<!-- Generator: Adobe Illustrator 21.0.2, SVG Export Plug-In . SVG Version: 6.00 Build 0)  -->
<svg version="1.1" id="Layer_1" xmlns="http://www.w3.org/2000/svg" xmlns:xlink="http://www.w3.org/1999/xlink" x="0px" y="0px"
	 viewBox="0 0 60 60" style="enable-background:new 0 0 60 60;" xml:space="preserve">
<title>search</title>
<desc>Created with Sketch.</desc>
<g id="Page-1">
	<g id="search">
		<path d="M40.3,43l13.2,13.2c0.9,0.9,2.3,0.9,3.2,0c0.9-0.9,0.9-2.3,0-3.2L43.5,39.8c7.4-9,6.9-22.4-1.6-30.9c-9-9-23.6-9-32.6-0.1
			s-9,23.6,0.1,32.6C17.9,49.9,31.3,50.4,40.3,43L40.3,43z M12.5,12c7.2-7.2,18.9-7.2,26.2,0.1s7.3,19,0.1,26.2s-18.9,7.2-26.2-0.1
			S5.3,19.2,12.5,12z"/>
	</g>
</g>
</svg>
